<svg xmlns="http://www.w3.org/2000/svg" width="400" height="400" viewBox="0 0 400 400"><path d="M38.926 19.63c-2.512 10.009-.487 29.131 4.206 39.715 4.005 9.034 6.893 12.82 22.478 29.474 9.682 10.345 13.197 14.867 17.962 23.102l2.03 3.509-.242-2.735c-2.264-25.507-7.701-39.157-23.26-58.398a11031 11031 0 0 1-8.345-10.332C46.771 35.3 42.803 28.8 40.416 22.113c-1.042-2.918-1.281-3.316-1.49-2.483m309.765.292c-1.066 5.331-10.158 18.999-23.127 34.766-9.758 11.863-15.97 23.395-19.898 36.941-1.419 4.894-3.322 18.244-3.322 23.302 0 .257 1.165-1.443 2.588-3.776 5.297-8.683 8.766-12.997 20.273-25.217 18.581-19.732 22.671-27.47 24.43-46.231.818-8.712.052-24.762-.944-19.785m-274.529 6.25c-1.425 3.24-2.261 9.774-2.275 17.773-.016 8.796 1.34 14.236 6.226 24.969 1.67 3.67 3.383 7.628 3.805 8.798l.769 2.125.868-3.22c3.446-12.77 2.891-19.051-2.697-30.54-3.766-7.743-5.161-12.125-5.776-18.147l-.32-3.125zm238.385 2.734c-.871 6.79-2.234 11.034-5.888 18.332-4.913 9.813-5.596 16.335-2.914 27.839 1.258 5.398 1.258 5.397 2.447 1.974.504-1.45 1.949-4.872 3.211-7.604 6.969-15.084 8.623-32.054 4.18-42.885l-.56-1.367zM198.291 43.439c-.541 6.392-1.967 43.529-2.388 62.225-.116 5.156-.295 11.66-.396 14.453-.491 13.515-1.054 67.987-.91 88.11.089 12.448.108 22.632.042 22.632-.065 0-1.039-.749-2.164-1.665-1.125-.917-4.33-3.31-7.123-5.32s-5.727-4.16-6.521-4.78c-1.876-1.464-2.143-1.423-.923.144 1.727 2.217 11.133 15.324 11.143 15.528.006.107-6.097.788-13.563 1.514-18.053 1.753-17.8 1.664-7.679 2.716 4.707.489 9.877 1.049 11.488 1.244 3.829.464 9.439.972 10.058.911.269-.027.489.019.489.102 0 .205-9.524 12.778-11.434 15.095-1.913 2.32-1.728 2.316 1.562-.035 4.169-2.98 14.309-10.01 14.645-10.154.168-.072.305 5.464.305 12.301 0 27.009 2.54 123.116 3.273 123.849.898.899 4.33-133.429 3.467-135.727-.339-.905.307-.505 8.529 5.273l8.972 6.303c.425.297-2.126-3.307-5.67-8.008-6.399-8.491-6.435-8.55-5.378-8.825.586-.151 4.756-.643 9.268-1.091a983 983 0 0 0 14.062-1.503c6.887-.809 7.749-.617-10.742-2.395-6.767-.651-12.603-1.226-12.967-1.279-.492-.071.888-2.227 5.371-8.393 3.319-4.563 6.034-8.381 6.034-8.484 0-.178-13.719 9.722-16.211 11.699l-1.172.929-.025-48.314c-.023-44.59-.347-69.186-1.352-102.611-.399-13.252-1.539-38.973-1.737-39.178-.061-.063-.22 1.167-.353 2.734M36.138 62.868c-2.073 9.439-.118 23.56 4.485 32.39 4.94 9.474 11.146 15.049 27.696 24.877 6.016 3.573 11.173 8.12 13.78 12.151 2.097 3.242 2.107 3.19.718-3.493-3.37-16.2-9.06-25.522-21.511-35.236-15.6-12.172-21.046-18.716-23.953-28.783-.885-3.064-.941-3.153-1.215-1.906m315.04 1.627c-3.215 10.091-7.649 15.671-20.905 26.31-16.797 13.48-21.814 21.139-25.378 38.739-1.287 6.356-1.262 6.544.512 3.817 3.64-5.596 7.683-9.015 17.969-15.197 18.403-11.06 25.649-19.982 28.473-35.062.751-4.008.919-17.139.246-19.193l-.371-1.129zm9.846 19.228c-1.247 10.367-12.875 24.631-27.821 34.128-18.157 11.536-23.795 19.487-26.732 37.693-.528 3.276-.922 5.995-.875 6.042s1.049-1.15 2.226-2.661c5.488-7.048 11.541-11.896 21.359-17.106 12.83-6.808 15.805-8.896 20.611-14.461 7.836-9.073 11.835-22.583 11.452-38.686-.074-3.115-.173-5.342-.22-4.949m-334.07 3.875c.012 26.94 8.521 41.74 31.054 54.011 11.386 6.201 16.897 10.502 22.35 17.442 2.227 2.835 2.121 3.161 1.225-3.778-2.112-16.36-8.544-26.13-23.38-35.514-12.76-8.071-19.131-14.052-24.996-23.47-2.067-3.319-5.459-10.287-5.467-11.23-.003-.376-.181-.684-.396-.684-.229 0-.39 1.334-.39 3.223m62.362 14.619c.506 21.787 3.825 31.514 12.234 35.863 1.653.854 1.68.781.781-2.163-1.314-4.306-2.722-11.597-3.346-17.332-1.291-11.869-3.362-17.178-8.671-22.227l-1.16-1.104zm206.926-4.071c-4.336 4.635-5.852 8.665-7.2 19.135-.941 7.313-2.418 14.608-3.876 19.145-.605 1.88-1.001 3.418-.882 3.418 3.038 0 10.226-9.174 11.936-15.235 1.309-4.636 3.211-27.53 2.395-28.819-.037-.059-1.106 1.001-2.373 2.356m-273.08 23.729c.903 23.736 10.44 37.084 32.502 45.489 10.565 4.025 16.453 7.373 20.62 11.722l2.261 2.359-2.391-7.031c-6.11-17.973-9.856-22.438-27.326-32.563-12.132-7.032-19.945-14.365-24.478-22.976l-1.403-2.664zm341.527-4.515c-1.616 6.438-12.827 16.956-27.224 25.54-16.554 9.871-20.326 14.569-25.945 32.328-.965 3.048-1.754 5.609-1.754 5.69 0 .08 1.204-.998 2.676-2.397 4.084-3.884 8.378-6.314 17.928-10.149 11.706-4.702 14.112-5.998 19.599-10.564 8.741-7.275 14.646-21.083 15.158-35.445.203-5.7.082-7.076-.438-5.003m-258.43 5.882c.026 20.51 6.923 31.627 23.911 38.54 3.311 1.348 3.175 1.346 2.502.034-.982-1.911-2.488-7.214-3.356-11.816-1.452-7.693-3.14-10.4-10.249-16.432-4.66-3.956-8.666-8.536-11.351-12.981l-1.464-2.423zm173.008-.488c-2.133 3.258-6.693 8.06-13.854 14.593-5.099 4.651-5.659 5.721-7.344 14.041-1.164 5.747-1.742 7.782-3.186 11.229-.436 1.043 1.162.566 5.791-1.726 15.007-7.432 19.996-15.954 20.84-35.598.291-6.769.425-6.619-2.247-2.539M86.729 132.813c.028 19.485 7.044 31.728 21.053 36.737 8.855 3.166 10.792 3.943 12.296 4.93.869.57 1.438.771 1.323.467-.111-.293-.494-1.547-.853-2.785-2.828-9.774-8.634-17.802-17.798-24.607-6.125-4.548-13.042-11.255-14.803-14.352l-1.221-2.148zm213.293.347c-2.428 4.76-8.979 11.232-16.709 16.506-6.602 4.505-9.183 7.548-13.195 15.553-2.686 5.36-5.232 13.97-3.12 10.554.428-.693 4.512-2.566 9.369-4.298 16.275-5.8 22.382-13.756 23.979-31.241.869-9.511.873-9.421-.324-7.074m-168.542 5.805c.329 6.624 1.589 11.695 4.108 16.538 1.583 3.041 3.006 4.581 9.609 10.396 1.514 1.333 3.281 3.222 3.927 4.198 1.467 2.214 1.647 1.788 1.645-3.886-.003-9.609-2.796-14.995-11.158-21.525-3.177-2.48-7.58-6.895-7.58-7.599 0-.202-.149-.368-.331-.368s-.281 1.01-.22 2.246m123.663-.511c-1.155 1.696-4.034 4.359-8.424 7.792-5.365 4.195-7.961 8.165-9.057 13.847-.639 3.315-.757 12.173-.162 12.173.215 0 .391-.267.391-.592 0-.574 3.61-4.297 10.052-10.363 4.925-4.639 7.724-11.541 8.268-20.393.262-4.253.218-4.353-1.068-2.464M21.305 151.563c3.187 22.793 13.238 32.942 38.688 39.067 8.737 2.102 16.716 5.058 19.216 7.118 3.755 3.095-7.584-14.506-11.868-18.421-4.053-3.704-7.245-5.399-18.122-9.621-13.248-5.143-22.869-11.557-26.922-17.948l-1.238-1.953zm344.911-.231c-3.028 6.253-14.946 14.079-30.083 19.756-12.244 4.591-17.284 8.641-23.28 18.704-1.361 2.284-3.147 5.164-3.968 6.399-1.729 2.602-1.708 2.63.819 1.076 3.675-2.262 11.224-4.877 18.616-6.449 22.264-4.737 35.227-16.894 38.287-35.905.747-4.647.633-5.694-.391-3.581M86.435 162.924c.987 13.678 9.269 22.527 23.904 25.542 2.776.572 5.629 1.283 6.339 1.58 1.56.652 1.633.331.671-2.963-1.497-5.128-5.78-10.527-9.936-12.526-8.912-4.286-11.528-5.719-14.444-7.912-1.826-1.374-4.092-3.439-5.034-4.591l-1.714-2.093zm212.198.508c-3.86 3.939-7.073 6.067-14.767 9.779-6.552 3.161-8.375 4.687-11.149 9.332-1.759 2.945-3.435 8.267-2.482 7.883.365-.147 2.421-.694 4.57-1.216 13.957-3.39 14.809-3.743 18.823-7.795 4.359-4.4 7.344-11.233 8.134-18.622.155-1.45.218-2.617.139-2.594s-1.549 1.479-3.268 3.233m-174.604 3.015c2.022 6.535 5.087 9.785 11.909 12.627 4.526 1.885 7.043 3.441 9.155 5.659 1.487 1.561 1.607 1.531 2.126-.531 2.214-8.793-2.436-13.699-15.969-16.843-3.115-.723-6.08-1.435-6.587-1.582-.833-.24-.895-.175-.634.67m139.249-.053c-.32.176-3.044.874-6.051 1.55-14.533 3.27-19.256 8.2-16.541 17.263l.452 1.509 1.99-1.88c2.392-2.259 4.614-3.603 8.18-4.945 7.031-2.646 10.513-5.947 12.134-11.5.684-2.344.675-2.457-.164-1.997M83.665 182.069c1.183 12.233 8.829 19.286 23.952 22.093 2.793.519 6.014 1.187 7.158 1.486l2.081.543-.257-1.631c-1.018-6.479-5.888-11.117-14.658-13.96-6.316-2.047-11.909-5.292-16.217-9.408l-2.362-2.257zm219.569-1.616c-3.057 3.642-9.558 7.626-17.04 10.445-8.7 3.277-12.541 6.198-14.287 10.865-1.13 3.02-1.495 5.463-.776 5.191 1.6-.604 5.34-1.512 9.286-2.254 15.023-2.824 22.591-9.847 23.843-22.124.422-4.142.513-3.956-1.026-2.123m-181.599 1.911c1.337 4.824 1.549 5.302 3.077 6.96 1.934 2.098 4.688 3.554 9.468 5.005 4.522 1.372 5.476 1.868 7.657 3.982l1.798 1.742.249-2.077c.986-8.205-1.891-12.028-9.948-13.224-7.04-1.045-8.086-1.262-10.219-2.121-1.944-.783-2.235-.821-2.082-.267m142.037.904c-1.182.433-4.402 1.124-7.156 1.535-10.682 1.591-13.973 5.305-12.515 14.125l.243 1.467 1.671-1.54c2.06-1.899 4.56-3.189 8.382-4.324 6.715-1.995 9.286-4.099 10.952-8.961.594-1.731.965-3.135.825-3.12-.139.016-1.22.384-2.402.818m-235.858 3.949c8.591 15.812 15.837 20.583 34.255 22.558 12.1 1.297 16.255 2.281 21.448 5.083 1.579.851 2.961 1.548 3.07 1.548s-.459-1.186-1.264-2.636c-6.669-12.024-16.053-17.839-31.401-19.457-12.276-1.294-18.231-3.318-25.263-8.583l-2.787-2.087zm332.444-1.869c-4.711 4.604-14.718 8.109-26.274 9.202-15.466 1.464-24.106 7.003-31.826 20.406l-1.077 1.87 2.383-1.397c4.893-2.868 10.717-4.33 20.95-5.26 19.3-1.754 26.844-6.415 35.394-21.87 2.723-4.922 2.768-5.216.45-2.951m-239.784 12.459c1.296 6.911 4.577 9.975 12.189 11.384 3.848.713 6.262 1.641 8.295 3.192l1.352 1.031-.275-3.638c-.545-7.214-2.616-8.953-12.103-10.159-3.768-.479-6.344-1.215-8.396-2.401l-1.316-.76zm146.117-.403c-1.597 1.097-5.34 2.189-9.622 2.808-8.862 1.281-10.833 3.186-11.405 11.019l-.206 2.832 1.442-1.157c1.738-1.393 3.504-2.044 8.472-3.12 7.81-1.692 10.828-4.569 12.142-11.574.283-1.508.247-1.543-.823-.808m-179.482 4.505c0 .896 2.29 6.616 3.307 8.261 3.946 6.381 8.972 8.912 18.959 9.546 2.256.143 4.893.408 5.859.59 2.161.405 2.071.52 1.386-1.756-1.486-4.936-5.298-8.275-10.956-9.597-8.24-1.925-9.913-2.414-12.64-3.697-1.582-.744-3.559-1.894-4.395-2.556s-1.52-1.018-1.52-.791m211.914 1.312c-3.725 2.742-7.311 4.074-14.407 5.349-6.831 1.228-10.401 3.604-12.556 8.354-1.722 3.795-1.697 4.128.273 3.759.93-.174 3.536-.436 5.792-.582 12.281-.795 17.653-4.368 21.478-14.285 1.475-3.825 1.42-4.068-.58-2.595M52.734 213.548c-.537.089-3.613.7-6.836 1.36-8.563 1.752-14.306 1.896-20.117.504-1.57-.376 4.228 4.954 8.325 7.653 9.17 6.04 16.653 7.156 31.519 4.7 9.094-1.502 13.155-1.399 18.741.474 3.3 1.107 3.276 1.222.498-2.405-6.987-9.122-20.333-14.226-32.13-12.286m67.192-.019c.04 3.722 5.867 8.074 11.693 8.734 3.722.422 7.02 1.451 8.269 2.581.715.648.737.594.728-1.834-.022-6.487-2.843-8.484-12.686-8.976-3.438-.172-6.646-.432-7.129-.578-.484-.146-.877-.114-.875.073m146.285.216c-.645.186-3.633.49-6.641.676-9.806.604-12.304 2.443-12.304 9.059v2.761l1.197-1.008c1.385-1.165 3.953-1.958 8.373-2.587 4.674-.665 7.868-2.919 9.967-7.033 1.01-1.979.908-2.301-.592-1.868m59.375-.074c-9.263.931-19.548 7.149-23.707 14.332l-.661 1.141 2.809-.958c4.464-1.52 11.212-1.617 19.02-.271 17.788 3.066 27.618.549 38.069-9.749 2.955-2.912 3.034-3.229.566-2.274-3.21 1.242-12.62.949-19.433-.606-5.122-1.169-11.199-2.066-13.147-1.941-.43.028-2.012.175-3.516.326m-234.131 9.686c5.223 9.254 10.027 12.024 19.012 10.965 2.005-.237 4.578-.353 5.718-.258l2.073.172-.384-1.396c-1.61-5.854-4.735-7.746-13.673-8.274-6.34-.375-9.714-1.061-12.325-2.508l-1.68-.931zm204.443-1.042c-2.6 1.607-5.737 2.333-11.557 2.673-8.516.498-11.521 1.862-13.736 6.234-1.768 3.491-2.024 3.335 5.665 3.439 11.405.154 15.68-2.209 20.194-11.164 1.018-2.019.966-2.128-.566-1.182m-169.14 5.85c-1.289.209-3.267.329-4.395.267-2.533-.138-2.534-.149.129 2.535 2.958 2.982 4.695 3.739 10.211 4.451 2.531.327 5.284.829 6.118 1.115l1.516.52-.205-2.558c-.441-5.491-5.06-7.677-13.374-6.33m125.882.516c-3.245 1.158-4.477 2.85-4.874 6.694l-.218 2.119 1.273-.635c.7-.349 3.317-.885 5.816-1.191 5.837-.715 8.344-1.796 11.067-4.772l2-2.185-4.067-.245c-6.572-.396-9.442-.34-10.997.215m-187.015 4.023c-.752.087-4.07.685-7.374 1.329-13.43 2.619-26.028 2.971-31.477.88-1.898-.728 3.653 5.468 8.051 8.986 9.545 7.637 23.156 10.207 31.487 5.944 1.019-.521 3.761-2.187 6.093-3.703 6.765-4.396 11.879-5.619 17.732-4.241 2.857.673 2.879.651 1.018-.993-8.065-7.127-15.138-9.399-25.53-8.202m245.829.122c-4.778.856-9.55 3.329-14.108 7.31-2.949 2.577-2.943 2.593.727 1.812 6.151-1.308 9.735-.443 17.149 4.137 16.338 10.093 32.224 6.956 44.961-8.877 2.831-3.518 2.954-3.351-1.589-2.17-7.53 1.956-15.231 1.707-28.711-.93-7.534-1.474-14.611-1.966-18.429-1.282m-216.141 5.745c0 .791 4.478 6.36 6.04 7.512 3.639 2.683 6.178 3.029 15.682 2.138l3.948-.369-.551-1.887c-1.485-5.077-5.081-6.665-14.244-6.29-5.742.236-6.609.185-8.629-.505-1.236-.422-2.246-.692-2.246-.599m195.117.768c-1.636.604-4.778.742-11.328.5-5.534-.204-9.412 1.759-11.186 5.665-1.25 2.753-1.226 2.775 3.471 3.151 11.627.93 16.608-1.255 20.754-9.104.527-.997.444-1.007-1.711-.212m-160.938 1.543c-1.366.319-3.361.467-4.785.355-2.845-.224-2.9-.116-1.041 2.055 2.774 3.241 4.261 3.777 10.514 3.789 3.008.006 5.801.166 6.208.356.688.322.725.2.538-1.744-.432-4.495-4.837-6.349-11.434-4.811m120.508.425c-1.577.857-3.125 3.536-3.125 5.409v1.239l1.452-.499c1.002-.345 2.848-.439 5.957-.303 5.32.232 7.711-.657 10.064-3.743 1.709-2.241 1.754-2.195-2.141-2.23-1.88-.017-5.088-.163-7.129-.324-3.255-.256-3.879-.201-5.078.451m-167.383 8.286c-4.141.882-8.897 2.933-18.131 7.818-7.164 3.79-15.572 5.925-21.205 5.384l-2.017-.194 1.106.828c6.568 4.916 16.392 8.446 23.507 8.446 7.947 0 13.383-3.098 20.841-11.877 2.819-3.317 6.143-6.153 9.335-7.96l2.107-1.193-2.107-.667c-2.393-.756-10.89-1.127-13.436-.585m210.995.409c-4.228.891-4.224.888-2.09 1.953 3.128 1.562 6.667 4.545 10.141 8.546 11.776 13.563 24.464 15.024 41.435 4.773 4.349-2.627 4.445-2.842 1.136-2.534-6.448.599-13.784-1.431-22.75-6.295-13.608-7.384-18.281-8.464-27.872-6.443m-161.581 3.518c-1.396.616-3.466 1.24-4.599 1.385-2.564.33-2.312.765 1.57 2.707 3.038 1.52 4.538 1.676 7.486.782 1.055-.32 2.593-.581 3.418-.581 1.713 0 1.912-.603.956-2.892-1.197-2.863-4.372-3.367-8.831-1.401m116.835-.682c-2.314 1.189-3.736 5.371-1.727 5.076.61-.089 2.305.115 3.767.454 3.937.913 5.478.799 8.1-.598 3.73-1.988 3.976-2.528 1.298-2.842-1.219-.144-3.523-.784-5.118-1.423-3.122-1.25-4.835-1.431-6.32-.667m-138.319 1.501c-2.287.547-4.263.755-6.348.666-3.671-.155-3.668-.181-.39 3.142 4.325 4.385 7.429 5.148 13.628 3.347 1.904-.553 4.4-1.219 5.547-1.481l2.086-.476-1.802-2.003c-3.313-3.686-6.905-4.588-12.721-3.195m159.961-.079c-2.047.518-3.676 1.571-5.668 3.665l-1.937 2.036 1.068.12c.587.066 3.016.637 5.397 1.27 7.333 1.946 10.285 1.31 14.659-3.159 2.888-2.953 2.876-3.051-.362-2.819-1.654.118-3.691-.037-5.372-.409-3.681-.815-6.382-1.059-7.785-.704m-133.423 9.945c-2.212.597-3.396 1.445-6.616 4.741l-2.539 2.599 3.966-.128c4.725-.152 6.469-1.091 8.631-4.647 1.975-3.246 1.207-3.818-3.442-2.565m108.618-.288c0 .729 2.215 4.269 3.379 5.398 2.177 2.115 6.644 3.121 9.859 2.221 1.1-.308-3.865-5.136-6.798-6.61-1.356-.682-6.44-1.478-6.44-1.009m-153.261 1.887c-3.426 1.209-5.662 2.581-11.102 6.813-5.971 4.645-11.548 7.502-17.666 9.051l-1.756.445 1.756.924c13.297 6.997 24.982 4.178 31.82-7.676 2.697-4.676 4.6-7.131 6.688-8.629l1.817-1.302-1.121-.247c-2.832-.624-7.735-.332-10.436.621m193.573-.575c-1.835.435-1.831.517.086 1.894 1.963 1.41 3.566 3.507 6.316 8.268 6.731 11.648 16.247 14.219 29.653 8.01l3.125-1.447-2.057-.541c-5.319-1.399-11.418-4.735-17.846-9.763-7.738-6.053-13.178-7.865-19.277-6.421m-168.256 1.134c-.653.166-2.675 1.02-4.493 1.899s-4.352 1.898-5.631 2.266l-2.326.668 1.154.961c5.483 4.567 10.64 4.17 16.153-1.245l3.289-3.23-1.917-.627c-2.498-.816-4.752-1.067-6.229-.692m146.241.856-2.211.791 3.241 3.053c5.509 5.189 9.644 5.701 15.432 1.912 2.439-1.597 2.44-1.594-.286-2.414-1.236-.371-3.823-1.408-5.751-2.304-4.279-1.989-7.01-2.261-10.425-1.038m-123.935 6.454c-3.944 2.183-4.405 2.635-7.269 7.111l-2.37 3.704 2.237-.263c4.102-.482 7.238-2.406 8.767-5.376.855-1.664 2.395-6.993 2.002-6.932-.147.022-1.662.813-3.367 1.756m104.267-.227c1.066 6.439 4.777 10.171 10.731 10.794l2.359.246-2.291-3.473c-2.928-4.44-3.944-5.428-7.23-7.031-1.476-.72-2.948-1.529-3.272-1.797-.514-.427-.551-.269-.297 1.261m-119.236 4.314c-3.362.437-5.88 1.922-8.763 5.166-1.333 1.5-3.114 3.227-3.957 3.838l-1.533 1.11 1.122.432c5.657 2.178 11.38-.014 13.983-5.356.613-1.257 1.626-3.033 2.25-3.946 1.31-1.914 1.491-1.841-3.102-1.244m134.081.994c.41.621 1.424 2.359 2.253 3.863 3.169 5.745 7.222 7.563 13.397 6.009 2.074-.523 2.144-.81.452-1.855-.706-.437-2.481-2.127-3.946-3.757-3.435-3.822-5.556-4.949-9.793-5.203l-3.108-.186zm-153.708.986c-4.04.663-7.344 2.604-11.182 6.57-5.437 5.618-8.656 7.68-14.379 9.211l-3.101.83 2.905 1.204c12.071 5.004 20.521 1.808 24.722-9.351 1.27-3.374 2.735-6.203 3.978-7.68l1.032-1.227-.913.046c-.503.025-1.881.204-3.062.397m40.452.267c-.126.398-1.459 1.903-2.962 3.346-3.556 3.414-3.824 3.864-5.101 8.565-1.251 4.602-1.281 4.485.932 3.64 5.185-1.98 8.085-6.708 8.085-13.184 0-2.579-.496-3.809-.954-2.367m134.307 1.741c.904 1.347 2.233 4.086 2.954 6.085 3.04 8.431 6.514 11.355 13.891 11.692 4.512.206 7.493-.398 11.521-2.335l2.539-1.22-1.85-.296c-5.305-.847-8.852-2.933-14.576-8.573-4.798-4.727-8.128-6.703-12.505-7.42-3.837-.628-3.804-.663-1.974 2.067m-39.212.841c0 6.995 3.645 12.249 9.472 13.652 1.304.314 1.312.65-.083-3.62-1.652-5.053-2.063-5.71-5.925-9.473l-3.464-3.376zm-90.027 6.577c-.163.594-1.172 2.264-2.243 3.711-2.782 3.758-3.628 5.63-4.541 10.053-.444 2.148-.926 4.309-1.072 4.802l-.264.896 2.237-.99c5.648-2.497 7.926-6.362 7.498-12.716-.287-4.256-1.168-7.394-1.615-5.756m84.573.948c-1.544 6.044-.805 10.833 2.187 14.16 2.365 2.631 7.681 5.422 7.01 3.681-.154-.401-.601-2.322-.994-4.271-.922-4.577-2.064-7.178-4.439-10.105-1.057-1.302-2.228-3.038-2.603-3.856l-.681-1.488zm-106.265-.407c-3.292 1.136-4.971 2.731-7.596 7.215-.958 1.638-2.278 3.428-2.932 3.979-1.638 1.378-1.567 1.443 1.596 1.443 5.922 0 8.556-1.981 11.06-8.316.831-2.103 1.659-3.915 1.84-4.027 1.613-.997-1.305-1.214-3.968-.294m125.329.369c.458.624 1.262 2.404 1.786 3.954 2.073 6.122 4.881 8.314 10.657 8.314 3.737 0 3.637.083 1.944-1.621-.714-.72-2.043-2.588-2.953-4.151-2.814-4.837-5.545-6.84-10.046-7.369l-2.22-.261zm-143.731 4.984c-3.496 1.439-5.557 3.227-9.638 8.363-2.704 3.403-7.382 6.733-9.459 6.733-1.274 0 .336.744 2.932 1.356 10.012 2.357 16.066-1.759 18.153-12.343.239-1.209.758-2.835 1.155-3.613.91-1.784.245-1.889-3.143-.496m162.917.35c.407.698 1.19 3.109 1.741 5.358 2.373 9.688 9.718 13.654 19.467 10.511 1.36-.439 2-1.123 1.05-1.123-2.226 0-6.896-3.566-10.198-7.787-3.071-3.926-6.152-6.451-9.075-7.438-3.482-1.176-3.908-1.108-2.985.479m-138.128 6.177c-3.301 1.729-4.979 3.563-7.182 7.851-1.072 2.087-2.402 4.332-2.955 4.991l-1.007 1.196h1.32c7.056 0 11.963-4.935 12.694-12.767.27-2.886.24-2.899-2.87-1.271m113.313.879c1.008 8.065 4.744 12.329 11.398 13.011l2.685.275-1.02-1.337c-.561-.736-1.744-2.777-2.628-4.536-2.416-4.805-4.898-7.249-8.991-8.851l-1.707-.669zm-128.684 5.244c-3.02.942-5.626 3.125-8.78 7.356-1.932 2.591-5.656 5.637-6.892 5.637-.4 0-.403.098-.012.488.908.908 8.556.646 10.41-.356 3.542-1.915 5.451-5.128 5.98-10.067.333-3.108.274-3.364-.706-3.058m146.256 2.437c1.009 8.917 5.686 12.649 14.476 11.551 2.509-.314 2.668-.607.808-1.494-1.922-.916-4.224-3.103-6.237-5.925-2.066-2.895-4.083-4.742-6.255-5.728-2.802-1.273-3.097-1.104-2.792 1.596m-126.139 3.154c-3.007 1.706-4.276 3.348-5.455 7.062-.571 1.798-1.13 3.49-1.242 3.758-.571 1.365 4.558-.352 6.46-2.163 1.678-1.598 2.177-3.023 2.526-7.212.25-2.986.334-2.933-2.289-1.445m104.686 1.408c.378 3.815.852 5.394 2.046 6.813 1.878 2.232 7.706 4.252 6.933 2.404-.158-.376-.611-1.693-1.007-2.926-1.326-4.128-2.664-5.791-6.346-7.888l-1.89-1.077zm-119.29 6.221c-1.774.887-3.185 1.918-3.862 2.822-.586.784-1.951 2.341-3.033 3.461-2.142 2.216-2.057 2.457.874 2.469 5.643.024 8.116-2.35 9.252-8.881.275-1.583.183-1.579-3.231.129m132.951-.168c1.376 6.86 5.079 9.857 10.844 8.776l1.304-.245-3.724-3.862c-4.819-4.998-8.949-7.287-8.424-4.669" fill="#f38a32" fill-rule="evenodd"/></svg>